<mxfile host="app.diagrams.net" agent="Mozilla/5.0 (Windows NT 10.0; Win64; x64; rv:133.0) Gecko/20100101 Firefox/133.0" version="25.0.3">
  <diagram name="Seite-1" id="jKl1TPY8x4eaIMNmxK4r">
    <mxGraphModel dx="1293" dy="697" grid="1" gridSize="10" guides="1" tooltips="1" connect="1" arrows="1" fold="1" page="1" pageScale="1" pageWidth="827" pageHeight="1169" math="0" shadow="0">
      <root>
        <mxCell id="0" />
        <mxCell id="1" parent="0" />
        <object label="Process Status" btelligentShapeType="Dimension" btelligentLibrary="ADAPT" id="qzKK9jRwpghbmKVsXcbc-1">
          <mxCell style="group;fillColor=default;verticalAlign=middle;align=left;spacingLeft=31;fontStyle=1;connectable=1;whiteSpace=wrap;" vertex="1" connectable="0" parent="1">
            <mxGeometry x="120" y="120" width="160" height="40" as="geometry" />
          </mxCell>
        </object>
        <object label="GGG" id="qzKK9jRwpghbmKVsXcbc-2">
          <mxCell style="rounded=0;whiteSpace=wrap;html=1;noLabel=1;container=0;editable=0;movable=1;resizable=1;rotatable=1;deletable=1;locked=0;connectable=0;fillColor=none;" vertex="1" parent="qzKK9jRwpghbmKVsXcbc-1">
            <mxGeometry width="160" height="40" as="geometry" />
          </mxCell>
        </object>
        <mxCell id="qzKK9jRwpghbmKVsXcbc-3" value="" style="rounded=0;whiteSpace=wrap;html=1;fillColor=#000000;fontColor=#ffffff;strokeColor=#000000;strokeWidth=1;deletable=1;cloneable=0;movable=1;editable=1;resizable=1;rotatable=1;locked=0;connectable=1;container=0;expand=0;recursiveResize=0;allowArrows=0;" vertex="1" parent="qzKK9jRwpghbmKVsXcbc-1">
          <mxGeometry x="6.000000000000028" y="14" width="10" height="10" as="geometry" />
        </mxCell>
        <mxCell id="qzKK9jRwpghbmKVsXcbc-4" value="" style="endArrow=block;html=1;rounded=0;endFill=1;startSize=2;endSize=3;strokeWidth=1;deletable=1;cloneable=0;movable=1;editable=1;resizable=1;rotatable=1;locked=0;connectable=1;" edge="1" parent="qzKK9jRwpghbmKVsXcbc-1">
          <mxGeometry width="50" height="50" relative="1" as="geometry">
            <mxPoint x="15.000000000000028" y="14" as="sourcePoint" />
            <mxPoint x="28.00000000000003" y="14" as="targetPoint" />
          </mxGeometry>
        </mxCell>
        <mxCell id="qzKK9jRwpghbmKVsXcbc-5" value="" style="endArrow=block;html=1;rounded=0;endFill=1;startSize=2;endSize=3;strokeWidth=1;deletable=1;cloneable=0;movable=1;editable=1;resizable=1;rotatable=1;locked=0;connectable=1;" edge="1" parent="qzKK9jRwpghbmKVsXcbc-1">
          <mxGeometry width="50" height="50" relative="1" as="geometry">
            <mxPoint x="6.000000000000028" y="22" as="sourcePoint" />
            <mxPoint x="6.000000000000028" y="36" as="targetPoint" />
          </mxGeometry>
        </mxCell>
        <mxCell id="qzKK9jRwpghbmKVsXcbc-6" value="" style="endArrow=block;html=1;rounded=0;endFill=1;startSize=2;endSize=3;strokeWidth=1;deletable=1;cloneable=0;movable=1;editable=1;resizable=1;rotatable=1;locked=0;connectable=1;" edge="1" parent="qzKK9jRwpghbmKVsXcbc-1">
          <mxGeometry width="50" height="50" relative="1" as="geometry">
            <mxPoint x="6.000000000000028" y="14" as="sourcePoint" />
            <mxPoint x="17.00000000000003" y="4" as="targetPoint" />
          </mxGeometry>
        </mxCell>
        <object label="Process Status Hierarchy" btelligentShapeType="Hierarchy" btelligentLibrary="ADAPT" id="qzKK9jRwpghbmKVsXcbc-7">
          <mxCell style="group;fillColor=default;verticalAlign=middle;align=left;spacingLeft=32;connectable=1;whiteSpace=wrap;" vertex="1" connectable="0" parent="1">
            <mxGeometry x="120" y="240" width="160" height="40" as="geometry" />
          </mxCell>
        </object>
        <mxCell id="qzKK9jRwpghbmKVsXcbc-8" value="Hierarchy" style="shape=loopLimit;whiteSpace=wrap;html=1;size=20;verticalAlign=middle;spacingLeft=37;align=left;container=0;fillColor=none;noLabel=1;editable=0;movable=1;resizable=1;rotatable=1;deletable=1;locked=0;connectable=0;" vertex="1" parent="qzKK9jRwpghbmKVsXcbc-7">
          <mxGeometry width="160" height="40" as="geometry" />
        </mxCell>
        <mxCell id="qzKK9jRwpghbmKVsXcbc-9" value="" style="group;movable=1;resizable=1;rotatable=1;deletable=1;editable=1;locked=0;connectable=1;" vertex="1" connectable="0" parent="qzKK9jRwpghbmKVsXcbc-7">
          <mxGeometry x="5" y="10" width="24" height="24" as="geometry" />
        </mxCell>
        <mxCell id="qzKK9jRwpghbmKVsXcbc-10" style="vsdxID=8;fillColor=#C0C0C0;gradientColor=none;shape=stencil(rVFBDsIwDHtNj5VCK14wxj8ilm0VZZ3SAuX3tAoIBhwQ4mbHjhMlyjZxxJmUgZg47OnsujQqu1HGuGkkdqkgZVtlmz4wDRyOUyd8xuqs6BBONSFLH9QOAxdha6FbcSLvisR5oQEvvfegFXyMgqwxu6g5JEwuTIupHnkgXcbo3uNwyxEpnonmt/Ivi/1nLfhirQIeZ+6d9/KlZ/31LaUkL7XtFQ==);strokeColor=#000000;spacingTop=-3;spacingBottom=-3;spacingLeft=-3;spacingRight=-3;points=[];labelBackgroundColor=none;rounded=0;html=1;whiteSpace=wrap;container=0;" vertex="1" parent="qzKK9jRwpghbmKVsXcbc-9">
          <mxGeometry y="15" width="9" height="9" as="geometry" />
        </mxCell>
        <mxCell id="qzKK9jRwpghbmKVsXcbc-11" style="vsdxID=9;fillColor=#C0C0C0;gradientColor=none;shape=stencil(rVFBDsIwDHtNj5VCK14wxj8ilm0VZZ3SAuX3tAoIBhwQ4mbHjhMlyjZxxJmUgZg47OnsujQqu1HGuGkkdqkgZVtlmz4wDRyOUyd8xuqs6BBONSFLH9QOAxdha6FbcSLvisR5oQEvvfegFXyMgqwxu6g5JEwuTIupHnkgXcbo3uNwyxEpnonmt/Ivi/1nLfhirQIeZ+6d9/KlZ/31LaUkL7XtFQ==);strokeColor=#000000;spacingTop=-3;spacingBottom=-3;spacingLeft=-3;spacingRight=-3;points=[];labelBackgroundColor=none;rounded=0;html=1;whiteSpace=wrap;container=0;" vertex="1" parent="qzKK9jRwpghbmKVsXcbc-9">
          <mxGeometry x="15" y="15" width="9" height="9" as="geometry" />
        </mxCell>
        <mxCell id="qzKK9jRwpghbmKVsXcbc-12" style="vsdxID=10;fillColor=#C0C0C0;gradientColor=none;shape=stencil(rVFBDsIwDHtNj5VCK14wxj8ilm0VZZ3SAuX3tAoIBhwQ4mbHjhMlyjZxxJmUgZg47OnsujQqu1HGuGkkdqkgZVtlmz4wDRyOUyd8xuqs6BBONSFLH9QOAxdha6FbcSLvisR5oQEvvfegFXyMgqwxu6g5JEwuTIupHnkgXcbo3uNwyxEpnonmt/Ivi/1nLfhirQIeZ+6d9/KlZ/31LaUkL7XtFQ==);strokeColor=#000000;spacingTop=-3;spacingBottom=-3;spacingLeft=-3;spacingRight=-3;points=[];labelBackgroundColor=none;rounded=0;html=1;whiteSpace=wrap;container=0;" vertex="1" parent="qzKK9jRwpghbmKVsXcbc-9">
          <mxGeometry x="7" width="9" height="9" as="geometry" />
        </mxCell>
        <mxCell id="qzKK9jRwpghbmKVsXcbc-13" value="" style="vsdxID=11;edgeStyle=none;startArrow=none;endArrow=none;startSize=5;endSize=5;strokeColor=#000000;spacingTop=-3;spacingBottom=-3;spacingLeft=-3;spacingRight=-3;verticalAlign=middle;html=1;labelBackgroundColor=none;rounded=0;" edge="1" parent="qzKK9jRwpghbmKVsXcbc-9">
          <mxGeometry relative="1" as="geometry">
            <Array as="points" />
            <mxPoint x="6" y="15" as="sourcePoint" />
            <mxPoint x="10" y="9" as="targetPoint" />
          </mxGeometry>
        </mxCell>
        <mxCell id="qzKK9jRwpghbmKVsXcbc-14" value="" style="vsdxID=12;edgeStyle=none;startArrow=none;endArrow=none;startSize=5;endSize=5;strokeColor=#000000;spacingTop=-3;spacingBottom=-3;spacingLeft=-3;spacingRight=-3;verticalAlign=middle;html=1;labelBackgroundColor=none;rounded=0;" edge="1" parent="qzKK9jRwpghbmKVsXcbc-9" target="qzKK9jRwpghbmKVsXcbc-12">
          <mxGeometry relative="1" as="geometry">
            <Array as="points" />
            <mxPoint x="18" y="15" as="sourcePoint" />
            <mxPoint x="15" y="9" as="targetPoint" />
          </mxGeometry>
        </mxCell>
        <object label="Level 1" btelligentShapeType="HierarchyLevel" btelligentLibrary="ADAPT" id="qzKK9jRwpghbmKVsXcbc-15">
          <mxCell style="group;fillColor=default;verticalAlign=middle;align=left;spacingLeft=34;connectable=1;whiteSpace=wrap;" vertex="1" connectable="0" parent="1">
            <mxGeometry x="120" y="360" width="160" height="40" as="geometry" />
          </mxCell>
        </object>
        <mxCell id="qzKK9jRwpghbmKVsXcbc-16" value="" style="group;movable=0;resizable=0;rotatable=0;deletable=0;editable=0;locked=1;connectable=0;" vertex="1" connectable="0" parent="qzKK9jRwpghbmKVsXcbc-15">
          <mxGeometry x="3" y="2" width="30" height="30" as="geometry" />
        </mxCell>
        <mxCell id="qzKK9jRwpghbmKVsXcbc-17" value="&lt;div style=&quot;font-size: 1px&quot;&gt;&lt;/div&gt;" style="verticalAlign=middle;align=center;overflow=width;vsdxID=9;fillColor=#C0C0C0;gradientColor=none;shape=stencil(UzV2Ls5ILEhVNTIoLinKz04tz0wpyVA1dlE1MsrMy0gtyiwBslSNXVWNndPyi1LTi/JL81Ig/IJEkEoQKze/DGRCBUSfqQFIi5FBJYQL4blBVOZk5iGpRFVoaIBHKUySKMX4XABkIByelpmTA/E3sjy6R4FCkEAydgUA);strokeColor=#000000;spacingTop=-3;spacingBottom=-3;spacingLeft=-3;spacingRight=-3;points=[];labelBackgroundColor=none;rounded=0;html=1;whiteSpace=wrap;container=0;" vertex="1" parent="qzKK9jRwpghbmKVsXcbc-16">
          <mxGeometry x="9" y="11" width="13" height="11" as="geometry" />
        </mxCell>
        <mxCell id="qzKK9jRwpghbmKVsXcbc-18" value="&lt;div style=&quot;font-size: 24px;&quot;&gt;&lt;font style=&quot;font-size: 24px; font-family: Calibri; color: rgb(0, 0, 0); direction: ltr; letter-spacing: 0px; line-height: 120%; opacity: 1;&quot;&gt;{&amp;nbsp;  }&lt;br style=&quot;font-size: 24px;&quot;&gt;&lt;/font&gt;&lt;/div&gt;" style="verticalAlign=middle;align=center;overflow=width;vsdxID=10;fillColor=none;gradientColor=none;shape=stencil(nZBLDoAgDERP0z3SIyjew0SURgSD+Lu9kMZoXLhwN9O+tukAlrNpJg1SzDH4QW/URgNYgZTkjA4UkwJUgGXng+6DX1zLfmoymdXo17xh5zmRJ6Q42BWCfc2oJfdAr+Yv+AP9Cb7OJ3H/2JG1HNGz/84klThPVCc=);strokeColor=none;spacingTop=0;spacingBottom=0;spacingLeft=0;spacingRight=0;points=[];labelBackgroundColor=none;rounded=0;html=1;whiteSpace=wrap;container=0;fontSize=24;fontStyle=0;horizontal=1;" vertex="1" parent="qzKK9jRwpghbmKVsXcbc-16">
          <mxGeometry width="30" height="30" as="geometry" />
        </mxCell>
        <object label="" ADAPT="Hierarchy Level" id="qzKK9jRwpghbmKVsXcbc-19">
          <mxCell style="rounded=1;whiteSpace=wrap;html=1;arcSize=50;fillColor=none;noLabel=1;connectable=0;editable=0;" vertex="1" parent="qzKK9jRwpghbmKVsXcbc-15">
            <mxGeometry width="160" height="40" as="geometry" />
          </mxCell>
        </object>
        <object label="Level X" btelligentShapeType="HierarchyLevel" btelligentLibrary="ADAPT" id="qzKK9jRwpghbmKVsXcbc-20">
          <mxCell style="group;fillColor=default;verticalAlign=middle;align=left;spacingLeft=34;connectable=1;whiteSpace=wrap;" vertex="1" connectable="0" parent="1">
            <mxGeometry x="120" y="520" width="160" height="40" as="geometry" />
          </mxCell>
        </object>
        <mxCell id="qzKK9jRwpghbmKVsXcbc-21" value="" style="group;movable=0;resizable=0;rotatable=0;deletable=0;editable=0;locked=1;connectable=0;" vertex="1" connectable="0" parent="qzKK9jRwpghbmKVsXcbc-20">
          <mxGeometry x="3" y="2" width="30" height="30" as="geometry" />
        </mxCell>
        <mxCell id="qzKK9jRwpghbmKVsXcbc-22" value="&lt;div style=&quot;font-size: 1px&quot;&gt;&lt;/div&gt;" style="verticalAlign=middle;align=center;overflow=width;vsdxID=9;fillColor=#C0C0C0;gradientColor=none;shape=stencil(UzV2Ls5ILEhVNTIoLinKz04tz0wpyVA1dlE1MsrMy0gtyiwBslSNXVWNndPyi1LTi/JL81Ig/IJEkEoQKze/DGRCBUSfqQFIi5FBJYQL4blBVOZk5iGpRFVoaIBHKUySKMX4XABkIByelpmTA/E3sjy6R4FCkEAydgUA);strokeColor=#000000;spacingTop=-3;spacingBottom=-3;spacingLeft=-3;spacingRight=-3;points=[];labelBackgroundColor=none;rounded=0;html=1;whiteSpace=wrap;container=0;" vertex="1" parent="qzKK9jRwpghbmKVsXcbc-21">
          <mxGeometry x="9" y="11" width="13" height="11" as="geometry" />
        </mxCell>
        <mxCell id="qzKK9jRwpghbmKVsXcbc-23" value="&lt;div style=&quot;font-size: 24px;&quot;&gt;&lt;font style=&quot;font-size: 24px; font-family: Calibri; color: rgb(0, 0, 0); direction: ltr; letter-spacing: 0px; line-height: 120%; opacity: 1;&quot;&gt;{&amp;nbsp;  }&lt;br style=&quot;font-size: 24px;&quot;&gt;&lt;/font&gt;&lt;/div&gt;" style="verticalAlign=middle;align=center;overflow=width;vsdxID=10;fillColor=none;gradientColor=none;shape=stencil(nZBLDoAgDERP0z3SIyjew0SURgSD+Lu9kMZoXLhwN9O+tukAlrNpJg1SzDH4QW/URgNYgZTkjA4UkwJUgGXng+6DX1zLfmoymdXo17xh5zmRJ6Q42BWCfc2oJfdAr+Yv+AP9Cb7OJ3H/2JG1HNGz/84klThPVCc=);strokeColor=none;spacingTop=0;spacingBottom=0;spacingLeft=0;spacingRight=0;points=[];labelBackgroundColor=none;rounded=0;html=1;whiteSpace=wrap;container=0;fontSize=24;fontStyle=0;horizontal=1;" vertex="1" parent="qzKK9jRwpghbmKVsXcbc-21">
          <mxGeometry width="30" height="30" as="geometry" />
        </mxCell>
        <object label="" ADAPT="Hierarchy Level" id="qzKK9jRwpghbmKVsXcbc-24">
          <mxCell style="rounded=1;whiteSpace=wrap;html=1;arcSize=50;fillColor=none;noLabel=1;connectable=0;editable=0;" vertex="1" parent="qzKK9jRwpghbmKVsXcbc-20">
            <mxGeometry width="160" height="40" as="geometry" />
          </mxCell>
        </object>
        <UserObject label="" btelligentShapeType="LoosePrecedence" btelligentLibrary="ADAPT" id="qzKK9jRwpghbmKVsXcbc-25">
          <mxCell style="vsdxID=5;startArrow=none;endArrow=block;startSize=10;endSize=10;strokeColor=#000000;spacingTop=2;spacingBottom=2;spacingLeft=2;spacingRight=2;verticalAlign=middle;html=1;labelBackgroundColor=#FFFFFF;rounded=1;jumpStyle=arc;startFill=0;endFill=1;fontStyle=2;labelBorderColor=none;edgeStyle=orthogonalEdgeStyle;" edge="1" parent="1" source="qzKK9jRwpghbmKVsXcbc-1" target="qzKK9jRwpghbmKVsXcbc-7">
            <mxGeometry relative="1" as="geometry">
              <mxPoint x="410" y="300" as="sourcePoint" />
              <mxPoint x="410" y="360" as="targetPoint" />
              <mxPoint as="offset" />
            </mxGeometry>
          </mxCell>
        </UserObject>
        <UserObject label="" btelligentLibrary="ADAPT" btelligentShapeType="StrictPrecedence" id="qzKK9jRwpghbmKVsXcbc-26">
          <mxCell style="vsdxID=5;edgeStyle=orthogonalEdgeStyle;startArrow=doubleBlock;endArrow=none;startSize=10;endSize=0;strokeColor=#000000;spacingTop=2;spacingBottom=2;spacingLeft=2;spacingRight=2;verticalAlign=middle;html=1;labelBackgroundColor=#FFFFFF;rounded=1;jumpStyle=arc;startFill=1;fontStyle=2" edge="1" parent="1" source="qzKK9jRwpghbmKVsXcbc-7" target="qzKK9jRwpghbmKVsXcbc-15">
            <mxGeometry x="0.25" relative="1" as="geometry">
              <mxPoint x="410" y="290" as="sourcePoint" />
              <mxPoint x="410" y="370" as="targetPoint" />
              <mxPoint as="offset" />
            </mxGeometry>
          </mxCell>
        </UserObject>
        <UserObject label="" btelligentLibrary="ADAPT" btelligentShapeType="StrictPrecedence" id="qzKK9jRwpghbmKVsXcbc-32">
          <mxCell style="vsdxID=5;edgeStyle=orthogonalEdgeStyle;startArrow=doubleBlock;endArrow=none;startSize=10;endSize=0;strokeColor=#000000;spacingTop=2;spacingBottom=2;spacingLeft=2;spacingRight=2;verticalAlign=middle;html=1;labelBackgroundColor=#FFFFFF;rounded=1;jumpStyle=arc;startFill=1;fontStyle=2" edge="1" parent="1" source="qzKK9jRwpghbmKVsXcbc-15" target="qzKK9jRwpghbmKVsXcbc-20">
            <mxGeometry x="0.25" relative="1" as="geometry">
              <mxPoint x="410" y="290" as="sourcePoint" />
              <mxPoint x="410" y="370" as="targetPoint" />
              <mxPoint as="offset" />
            </mxGeometry>
          </mxCell>
        </UserObject>
        <object label="Direction" btelligentShapeType="FullyExclusive" btelligentLibrary="ADAPT" id="qzKK9jRwpghbmKVsXcbc-33">
          <mxCell style="group;connectable=1;fillColor=default;labelPosition=center;verticalLabelPosition=bottom;align=center;verticalAlign=top;fontSize=10;fontStyle=2;whiteSpace=wrap;allowArrows=0;resizable=1;rotatable=1;cloneable=0;deletable=1;movable=1;editable=1;locked=0;pointerEvents=0;expand=0;" vertex="1" connectable="0" parent="1">
            <mxGeometry x="320" y="360" width="40" height="40" as="geometry" />
          </mxCell>
        </object>
        <mxCell id="qzKK9jRwpghbmKVsXcbc-34" value="" style="rounded=0;whiteSpace=wrap;html=1;fillColor=none;strokeColor=none;connectable=1;editable=1;allowArrows=0;resizable=1;rotatable=1;cloneable=0;deletable=1;movable=1;locked=0;pointerEvents=0;expand=0;" vertex="1" parent="qzKK9jRwpghbmKVsXcbc-33">
          <mxGeometry x="10" y="10" width="20" height="20" as="geometry" />
        </mxCell>
        <object label="" ADAPT="FullyExclusive" id="qzKK9jRwpghbmKVsXcbc-35">
          <mxCell style="shape=sumEllipse;perimeter=ellipsePerimeter;html=1;backgroundOutline=1;fontSize=10;fontStyle=2;verticalAlign=middle;labelPosition=center;verticalLabelPosition=middle;align=center;whiteSpace=wrap;connectable=1;noLabel=1;fillColor=none;editable=0;movable=1;resizable=1;rotatable=1;deletable=1;locked=0;cloneable=0;" vertex="1" parent="qzKK9jRwpghbmKVsXcbc-33">
            <mxGeometry width="40" height="40" as="geometry" />
          </mxCell>
        </object>
        <UserObject label="" btelligentShapeType="LoosePrecedence" btelligentLibrary="ADAPT" id="qzKK9jRwpghbmKVsXcbc-36">
          <mxCell style="vsdxID=5;startArrow=none;endArrow=block;startSize=10;endSize=10;strokeColor=#000000;spacingTop=2;spacingBottom=2;spacingLeft=2;spacingRight=2;verticalAlign=middle;html=1;labelBackgroundColor=#FFFFFF;rounded=1;jumpStyle=arc;startFill=0;endFill=1;fontStyle=2;labelBorderColor=none;edgeStyle=orthogonalEdgeStyle;" edge="1" parent="1" source="qzKK9jRwpghbmKVsXcbc-15" target="qzKK9jRwpghbmKVsXcbc-35">
            <mxGeometry relative="1" as="geometry">
              <mxPoint x="410" y="300" as="sourcePoint" />
              <mxPoint x="410" y="360" as="targetPoint" />
              <mxPoint as="offset" />
            </mxGeometry>
          </mxCell>
        </UserObject>
        <object label="Inbound" btelligentShapeType="DimensionMember" btelligentLibrary="ADAPT" id="qzKK9jRwpghbmKVsXcbc-40">
          <mxCell style="group;fillColor=default;verticalAlign=middle;align=left;spacingLeft=34;whiteSpace=wrap;connectable=1;" vertex="1" connectable="0" parent="1">
            <mxGeometry x="440" y="360" width="160" height="40" as="geometry" />
          </mxCell>
        </object>
        <object label="" ADAPT="DimensionMember" id="qzKK9jRwpghbmKVsXcbc-41">
          <mxCell style="rounded=1;whiteSpace=wrap;html=1;arcSize=50;align=left;spacingLeft=38;fillColor=none;noLabel=1;connectable=0;editable=0;movable=1;resizable=1;rotatable=1;deletable=1;locked=0;" vertex="1" parent="qzKK9jRwpghbmKVsXcbc-40">
            <mxGeometry width="160" height="40" as="geometry" />
          </mxCell>
        </object>
        <mxCell id="qzKK9jRwpghbmKVsXcbc-42" value="" style="group;movable=0;resizable=0;rotatable=0;deletable=0;editable=0;locked=1;connectable=0;" vertex="1" connectable="0" parent="qzKK9jRwpghbmKVsXcbc-40">
          <mxGeometry x="3" y="3" width="30" height="30" as="geometry" />
        </mxCell>
        <mxCell id="qzKK9jRwpghbmKVsXcbc-43" value="&lt;div style=&quot;font-size: 24px;&quot;&gt;&lt;font style=&quot;font-size: 24px; font-family: Calibri; color: rgb(0, 0, 0); direction: ltr; letter-spacing: 0px; line-height: 120%; opacity: 1;&quot;&gt;{&amp;nbsp;  }&lt;br style=&quot;font-size: 24px;&quot;&gt;&lt;/font&gt;&lt;/div&gt;" style="verticalAlign=middle;align=center;overflow=width;vsdxID=10;fillColor=none;gradientColor=none;shape=stencil(nZBLDoAgDERP0z3SIyjew0SURgSD+Lu9kMZoXLhwN9O+tukAlrNpJg1SzDH4QW/URgNYgZTkjA4UkwJUgGXng+6DX1zLfmoymdXo17xh5zmRJ6Q42BWCfc2oJfdAr+Yv+AP9Cb7OJ3H/2JG1HNGz/84klThPVCc=);strokeColor=none;spacingTop=0;spacingBottom=0;spacingLeft=0;spacingRight=0;points=[];labelBackgroundColor=none;rounded=0;html=1;whiteSpace=wrap;container=0;fontSize=24;fontStyle=0;horizontal=1;" vertex="1" parent="qzKK9jRwpghbmKVsXcbc-42">
          <mxGeometry width="30" height="30" as="geometry" />
        </mxCell>
        <mxCell id="qzKK9jRwpghbmKVsXcbc-44" value="" style="ellipse;whiteSpace=wrap;html=1;aspect=fixed;fillColor=#c0c0c0;strokeColor=#330000;" vertex="1" parent="qzKK9jRwpghbmKVsXcbc-42">
          <mxGeometry x="10" y="12" width="11" height="11" as="geometry" />
        </mxCell>
        <object label="Outbound" btelligentShapeType="DimensionMember" btelligentLibrary="ADAPT" id="qzKK9jRwpghbmKVsXcbc-45">
          <mxCell style="group;fillColor=default;verticalAlign=middle;align=left;spacingLeft=34;whiteSpace=wrap;connectable=1;" vertex="1" connectable="0" parent="1">
            <mxGeometry x="440" y="420" width="160" height="40" as="geometry" />
          </mxCell>
        </object>
        <object label="" ADAPT="DimensionMember" id="qzKK9jRwpghbmKVsXcbc-46">
          <mxCell style="rounded=1;whiteSpace=wrap;html=1;arcSize=50;align=left;spacingLeft=38;fillColor=none;noLabel=1;connectable=0;editable=0;movable=1;resizable=1;rotatable=1;deletable=1;locked=0;" vertex="1" parent="qzKK9jRwpghbmKVsXcbc-45">
            <mxGeometry width="160" height="40" as="geometry" />
          </mxCell>
        </object>
        <mxCell id="qzKK9jRwpghbmKVsXcbc-47" value="" style="group;movable=0;resizable=0;rotatable=0;deletable=0;editable=0;locked=1;connectable=0;" vertex="1" connectable="0" parent="qzKK9jRwpghbmKVsXcbc-45">
          <mxGeometry x="3" y="3" width="30" height="30" as="geometry" />
        </mxCell>
        <mxCell id="qzKK9jRwpghbmKVsXcbc-48" value="&lt;div style=&quot;font-size: 24px;&quot;&gt;&lt;font style=&quot;font-size: 24px; font-family: Calibri; color: rgb(0, 0, 0); direction: ltr; letter-spacing: 0px; line-height: 120%; opacity: 1;&quot;&gt;{&amp;nbsp;  }&lt;br style=&quot;font-size: 24px;&quot;&gt;&lt;/font&gt;&lt;/div&gt;" style="verticalAlign=middle;align=center;overflow=width;vsdxID=10;fillColor=none;gradientColor=none;shape=stencil(nZBLDoAgDERP0z3SIyjew0SURgSD+Lu9kMZoXLhwN9O+tukAlrNpJg1SzDH4QW/URgNYgZTkjA4UkwJUgGXng+6DX1zLfmoymdXo17xh5zmRJ6Q42BWCfc2oJfdAr+Yv+AP9Cb7OJ3H/2JG1HNGz/84klThPVCc=);strokeColor=none;spacingTop=0;spacingBottom=0;spacingLeft=0;spacingRight=0;points=[];labelBackgroundColor=none;rounded=0;html=1;whiteSpace=wrap;container=0;fontSize=24;fontStyle=0;horizontal=1;" vertex="1" parent="qzKK9jRwpghbmKVsXcbc-47">
          <mxGeometry width="30" height="30" as="geometry" />
        </mxCell>
        <mxCell id="qzKK9jRwpghbmKVsXcbc-49" value="" style="ellipse;whiteSpace=wrap;html=1;aspect=fixed;fillColor=#c0c0c0;strokeColor=#330000;" vertex="1" parent="qzKK9jRwpghbmKVsXcbc-47">
          <mxGeometry x="10" y="12" width="11" height="11" as="geometry" />
        </mxCell>
        <UserObject label="" btelligentShapeType="LoosePrecedence" btelligentLibrary="ADAPT" id="qzKK9jRwpghbmKVsXcbc-50">
          <mxCell style="vsdxID=5;startArrow=none;endArrow=block;startSize=10;endSize=10;strokeColor=#000000;spacingTop=2;spacingBottom=2;spacingLeft=2;spacingRight=2;verticalAlign=middle;html=1;labelBackgroundColor=#FFFFFF;rounded=1;jumpStyle=arc;startFill=0;endFill=1;fontStyle=2;labelBorderColor=none;edgeStyle=orthogonalEdgeStyle;" edge="1" parent="1" source="qzKK9jRwpghbmKVsXcbc-35" target="qzKK9jRwpghbmKVsXcbc-40">
            <mxGeometry relative="1" as="geometry">
              <mxPoint x="370" y="420" as="sourcePoint" />
              <mxPoint x="370" y="480" as="targetPoint" />
              <mxPoint as="offset" />
            </mxGeometry>
          </mxCell>
        </UserObject>
        <UserObject label="" btelligentShapeType="LoosePrecedence" btelligentLibrary="ADAPT" id="qzKK9jRwpghbmKVsXcbc-51">
          <mxCell style="vsdxID=5;startArrow=none;endArrow=block;startSize=10;endSize=10;strokeColor=#000000;spacingTop=2;spacingBottom=2;spacingLeft=2;spacingRight=2;verticalAlign=middle;html=1;labelBackgroundColor=#FFFFFF;rounded=1;jumpStyle=arc;startFill=0;endFill=1;fontStyle=2;labelBorderColor=none;edgeStyle=orthogonalEdgeStyle;" edge="1" parent="1" source="qzKK9jRwpghbmKVsXcbc-35" target="qzKK9jRwpghbmKVsXcbc-45">
            <mxGeometry relative="1" as="geometry">
              <mxPoint x="370" y="390" as="sourcePoint" />
              <mxPoint x="450" y="390" as="targetPoint" />
              <mxPoint as="offset" />
              <Array as="points">
                <mxPoint x="400" y="380" />
                <mxPoint x="400" y="440" />
              </Array>
            </mxGeometry>
          </mxCell>
        </UserObject>
        <object label="Inbound&#xa;Status&#xa;" btelligentShapeType="FullyExclusive" btelligentLibrary="ADAPT" id="qzKK9jRwpghbmKVsXcbc-52">
          <mxCell style="group;connectable=1;fillColor=default;labelPosition=center;verticalLabelPosition=bottom;align=center;verticalAlign=top;fontSize=10;fontStyle=2;whiteSpace=wrap;allowArrows=0;resizable=1;rotatable=1;cloneable=0;deletable=1;movable=1;editable=1;locked=0;pointerEvents=0;expand=0;" vertex="1" connectable="0" parent="1">
            <mxGeometry x="320" y="520" width="40" height="40" as="geometry" />
          </mxCell>
        </object>
        <mxCell id="qzKK9jRwpghbmKVsXcbc-53" value="" style="rounded=0;whiteSpace=wrap;html=1;fillColor=none;strokeColor=none;connectable=1;editable=1;allowArrows=0;resizable=1;rotatable=1;cloneable=0;deletable=1;movable=1;locked=0;pointerEvents=0;expand=0;" vertex="1" parent="qzKK9jRwpghbmKVsXcbc-52">
          <mxGeometry x="10" y="10" width="20" height="20" as="geometry" />
        </mxCell>
        <object label="" ADAPT="FullyExclusive" id="qzKK9jRwpghbmKVsXcbc-54">
          <mxCell style="shape=sumEllipse;perimeter=ellipsePerimeter;html=1;backgroundOutline=1;fontSize=10;fontStyle=2;verticalAlign=middle;labelPosition=center;verticalLabelPosition=middle;align=center;whiteSpace=wrap;connectable=1;noLabel=1;fillColor=none;editable=0;movable=1;resizable=1;rotatable=1;deletable=1;locked=0;cloneable=0;" vertex="1" parent="qzKK9jRwpghbmKVsXcbc-52">
            <mxGeometry width="40" height="40" as="geometry" />
          </mxCell>
        </object>
        <UserObject label="" btelligentShapeType="LoosePrecedence" btelligentLibrary="ADAPT" id="qzKK9jRwpghbmKVsXcbc-55">
          <mxCell style="vsdxID=5;startArrow=none;endArrow=block;startSize=10;endSize=10;strokeColor=#000000;spacingTop=2;spacingBottom=2;spacingLeft=2;spacingRight=2;verticalAlign=middle;html=1;labelBackgroundColor=#FFFFFF;rounded=1;jumpStyle=arc;startFill=0;endFill=1;fontStyle=2;labelBorderColor=none;edgeStyle=orthogonalEdgeStyle;" edge="1" parent="1" target="qzKK9jRwpghbmKVsXcbc-54" source="qzKK9jRwpghbmKVsXcbc-20">
            <mxGeometry relative="1" as="geometry">
              <mxPoint x="280" y="540" as="sourcePoint" />
              <mxPoint x="410" y="520" as="targetPoint" />
              <mxPoint as="offset" />
            </mxGeometry>
          </mxCell>
        </UserObject>
        <object label="good received" btelligentShapeType="DimensionMember" btelligentLibrary="ADAPT" id="qzKK9jRwpghbmKVsXcbc-56">
          <mxCell style="group;fillColor=default;verticalAlign=middle;align=left;spacingLeft=34;whiteSpace=wrap;connectable=1;" vertex="1" connectable="0" parent="1">
            <mxGeometry x="440" y="520" width="160" height="40" as="geometry" />
          </mxCell>
        </object>
        <object label="" ADAPT="DimensionMember" id="qzKK9jRwpghbmKVsXcbc-57">
          <mxCell style="rounded=1;whiteSpace=wrap;html=1;arcSize=50;align=left;spacingLeft=38;fillColor=none;noLabel=1;connectable=0;editable=0;movable=1;resizable=1;rotatable=1;deletable=1;locked=0;" vertex="1" parent="qzKK9jRwpghbmKVsXcbc-56">
            <mxGeometry width="160" height="40" as="geometry" />
          </mxCell>
        </object>
        <mxCell id="qzKK9jRwpghbmKVsXcbc-58" value="" style="group;movable=0;resizable=0;rotatable=0;deletable=0;editable=0;locked=1;connectable=0;" vertex="1" connectable="0" parent="qzKK9jRwpghbmKVsXcbc-56">
          <mxGeometry x="3" y="3" width="30" height="30" as="geometry" />
        </mxCell>
        <mxCell id="qzKK9jRwpghbmKVsXcbc-59" value="&lt;div style=&quot;font-size: 24px;&quot;&gt;&lt;font style=&quot;font-size: 24px; font-family: Calibri; color: rgb(0, 0, 0); direction: ltr; letter-spacing: 0px; line-height: 120%; opacity: 1;&quot;&gt;{&amp;nbsp;  }&lt;br style=&quot;font-size: 24px;&quot;&gt;&lt;/font&gt;&lt;/div&gt;" style="verticalAlign=middle;align=center;overflow=width;vsdxID=10;fillColor=none;gradientColor=none;shape=stencil(nZBLDoAgDERP0z3SIyjew0SURgSD+Lu9kMZoXLhwN9O+tukAlrNpJg1SzDH4QW/URgNYgZTkjA4UkwJUgGXng+6DX1zLfmoymdXo17xh5zmRJ6Q42BWCfc2oJfdAr+Yv+AP9Cb7OJ3H/2JG1HNGz/84klThPVCc=);strokeColor=none;spacingTop=0;spacingBottom=0;spacingLeft=0;spacingRight=0;points=[];labelBackgroundColor=none;rounded=0;html=1;whiteSpace=wrap;container=0;fontSize=24;fontStyle=0;horizontal=1;" vertex="1" parent="qzKK9jRwpghbmKVsXcbc-58">
          <mxGeometry width="30" height="30" as="geometry" />
        </mxCell>
        <mxCell id="qzKK9jRwpghbmKVsXcbc-60" value="" style="ellipse;whiteSpace=wrap;html=1;aspect=fixed;fillColor=#c0c0c0;strokeColor=#330000;" vertex="1" parent="qzKK9jRwpghbmKVsXcbc-58">
          <mxGeometry x="10" y="12" width="11" height="11" as="geometry" />
        </mxCell>
        <object label="stored" btelligentShapeType="DimensionMember" btelligentLibrary="ADAPT" id="qzKK9jRwpghbmKVsXcbc-61">
          <mxCell style="group;fillColor=default;verticalAlign=middle;align=left;spacingLeft=34;whiteSpace=wrap;connectable=1;" vertex="1" connectable="0" parent="1">
            <mxGeometry x="440" y="580" width="160" height="40" as="geometry" />
          </mxCell>
        </object>
        <object label="" ADAPT="DimensionMember" id="qzKK9jRwpghbmKVsXcbc-62">
          <mxCell style="rounded=1;whiteSpace=wrap;html=1;arcSize=50;align=left;spacingLeft=38;fillColor=none;noLabel=1;connectable=0;editable=0;movable=1;resizable=1;rotatable=1;deletable=1;locked=0;" vertex="1" parent="qzKK9jRwpghbmKVsXcbc-61">
            <mxGeometry width="160" height="40" as="geometry" />
          </mxCell>
        </object>
        <mxCell id="qzKK9jRwpghbmKVsXcbc-63" value="" style="group;movable=0;resizable=0;rotatable=0;deletable=0;editable=0;locked=1;connectable=0;" vertex="1" connectable="0" parent="qzKK9jRwpghbmKVsXcbc-61">
          <mxGeometry x="3" y="3" width="30" height="30" as="geometry" />
        </mxCell>
        <mxCell id="qzKK9jRwpghbmKVsXcbc-64" value="&lt;div style=&quot;font-size: 24px;&quot;&gt;&lt;font style=&quot;font-size: 24px; font-family: Calibri; color: rgb(0, 0, 0); direction: ltr; letter-spacing: 0px; line-height: 120%; opacity: 1;&quot;&gt;{&amp;nbsp;  }&lt;br style=&quot;font-size: 24px;&quot;&gt;&lt;/font&gt;&lt;/div&gt;" style="verticalAlign=middle;align=center;overflow=width;vsdxID=10;fillColor=none;gradientColor=none;shape=stencil(nZBLDoAgDERP0z3SIyjew0SURgSD+Lu9kMZoXLhwN9O+tukAlrNpJg1SzDH4QW/URgNYgZTkjA4UkwJUgGXng+6DX1zLfmoymdXo17xh5zmRJ6Q42BWCfc2oJfdAr+Yv+AP9Cb7OJ3H/2JG1HNGz/84klThPVCc=);strokeColor=none;spacingTop=0;spacingBottom=0;spacingLeft=0;spacingRight=0;points=[];labelBackgroundColor=none;rounded=0;html=1;whiteSpace=wrap;container=0;fontSize=24;fontStyle=0;horizontal=1;" vertex="1" parent="qzKK9jRwpghbmKVsXcbc-63">
          <mxGeometry width="30" height="30" as="geometry" />
        </mxCell>
        <mxCell id="qzKK9jRwpghbmKVsXcbc-65" value="" style="ellipse;whiteSpace=wrap;html=1;aspect=fixed;fillColor=#c0c0c0;strokeColor=#330000;" vertex="1" parent="qzKK9jRwpghbmKVsXcbc-63">
          <mxGeometry x="10" y="12" width="11" height="11" as="geometry" />
        </mxCell>
        <UserObject label="" btelligentShapeType="LoosePrecedence" btelligentLibrary="ADAPT" id="qzKK9jRwpghbmKVsXcbc-66">
          <mxCell style="vsdxID=5;startArrow=none;endArrow=block;startSize=10;endSize=10;strokeColor=#000000;spacingTop=2;spacingBottom=2;spacingLeft=2;spacingRight=2;verticalAlign=middle;html=1;labelBackgroundColor=#FFFFFF;rounded=1;jumpStyle=arc;startFill=0;endFill=1;fontStyle=2;labelBorderColor=none;edgeStyle=orthogonalEdgeStyle;" edge="1" parent="1" source="qzKK9jRwpghbmKVsXcbc-54" target="qzKK9jRwpghbmKVsXcbc-56">
            <mxGeometry relative="1" as="geometry">
              <mxPoint x="370" y="580" as="sourcePoint" />
              <mxPoint x="370" y="640" as="targetPoint" />
              <mxPoint as="offset" />
            </mxGeometry>
          </mxCell>
        </UserObject>
        <UserObject label="" btelligentShapeType="LoosePrecedence" btelligentLibrary="ADAPT" id="qzKK9jRwpghbmKVsXcbc-67">
          <mxCell style="vsdxID=5;startArrow=none;endArrow=block;startSize=10;endSize=10;strokeColor=#000000;spacingTop=2;spacingBottom=2;spacingLeft=2;spacingRight=2;verticalAlign=middle;html=1;labelBackgroundColor=#FFFFFF;rounded=1;jumpStyle=arc;startFill=0;endFill=1;fontStyle=2;labelBorderColor=none;edgeStyle=orthogonalEdgeStyle;" edge="1" parent="1" source="qzKK9jRwpghbmKVsXcbc-54" target="qzKK9jRwpghbmKVsXcbc-61">
            <mxGeometry relative="1" as="geometry">
              <mxPoint x="370" y="550" as="sourcePoint" />
              <mxPoint x="450" y="550" as="targetPoint" />
              <mxPoint as="offset" />
              <Array as="points">
                <mxPoint x="400" y="540" />
                <mxPoint x="400" y="600" />
              </Array>
            </mxGeometry>
          </mxCell>
        </UserObject>
        <object label="Level X" btelligentShapeType="HierarchyLevel" btelligentLibrary="ADAPT" id="qzKK9jRwpghbmKVsXcbc-68">
          <mxCell style="group;fillColor=default;verticalAlign=middle;align=left;spacingLeft=34;connectable=1;whiteSpace=wrap;" vertex="1" connectable="0" parent="1">
            <mxGeometry x="120" y="640" width="160" height="40" as="geometry" />
          </mxCell>
        </object>
        <mxCell id="qzKK9jRwpghbmKVsXcbc-69" value="" style="group;movable=0;resizable=0;rotatable=0;deletable=0;editable=0;locked=1;connectable=0;" vertex="1" connectable="0" parent="qzKK9jRwpghbmKVsXcbc-68">
          <mxGeometry x="3" y="2" width="30" height="30" as="geometry" />
        </mxCell>
        <mxCell id="qzKK9jRwpghbmKVsXcbc-70" value="&lt;div style=&quot;font-size: 1px&quot;&gt;&lt;/div&gt;" style="verticalAlign=middle;align=center;overflow=width;vsdxID=9;fillColor=#C0C0C0;gradientColor=none;shape=stencil(UzV2Ls5ILEhVNTIoLinKz04tz0wpyVA1dlE1MsrMy0gtyiwBslSNXVWNndPyi1LTi/JL81Ig/IJEkEoQKze/DGRCBUSfqQFIi5FBJYQL4blBVOZk5iGpRFVoaIBHKUySKMX4XABkIByelpmTA/E3sjy6R4FCkEAydgUA);strokeColor=#000000;spacingTop=-3;spacingBottom=-3;spacingLeft=-3;spacingRight=-3;points=[];labelBackgroundColor=none;rounded=0;html=1;whiteSpace=wrap;container=0;" vertex="1" parent="qzKK9jRwpghbmKVsXcbc-69">
          <mxGeometry x="9" y="11" width="13" height="11" as="geometry" />
        </mxCell>
        <mxCell id="qzKK9jRwpghbmKVsXcbc-71" value="&lt;div style=&quot;font-size: 24px;&quot;&gt;&lt;font style=&quot;font-size: 24px; font-family: Calibri; color: rgb(0, 0, 0); direction: ltr; letter-spacing: 0px; line-height: 120%; opacity: 1;&quot;&gt;{&amp;nbsp;  }&lt;br style=&quot;font-size: 24px;&quot;&gt;&lt;/font&gt;&lt;/div&gt;" style="verticalAlign=middle;align=center;overflow=width;vsdxID=10;fillColor=none;gradientColor=none;shape=stencil(nZBLDoAgDERP0z3SIyjew0SURgSD+Lu9kMZoXLhwN9O+tukAlrNpJg1SzDH4QW/URgNYgZTkjA4UkwJUgGXng+6DX1zLfmoymdXo17xh5zmRJ6Q42BWCfc2oJfdAr+Yv+AP9Cb7OJ3H/2JG1HNGz/84klThPVCc=);strokeColor=none;spacingTop=0;spacingBottom=0;spacingLeft=0;spacingRight=0;points=[];labelBackgroundColor=none;rounded=0;html=1;whiteSpace=wrap;container=0;fontSize=24;fontStyle=0;horizontal=1;" vertex="1" parent="qzKK9jRwpghbmKVsXcbc-69">
          <mxGeometry width="30" height="30" as="geometry" />
        </mxCell>
        <object label="" ADAPT="Hierarchy Level" id="qzKK9jRwpghbmKVsXcbc-72">
          <mxCell style="rounded=1;whiteSpace=wrap;html=1;arcSize=50;fillColor=none;noLabel=1;connectable=0;editable=0;" vertex="1" parent="qzKK9jRwpghbmKVsXcbc-68">
            <mxGeometry width="160" height="40" as="geometry" />
          </mxCell>
        </object>
        <UserObject label="" btelligentLibrary="ADAPT" btelligentShapeType="StrictPrecedence" id="qzKK9jRwpghbmKVsXcbc-73">
          <mxCell style="vsdxID=5;edgeStyle=orthogonalEdgeStyle;startArrow=doubleBlock;endArrow=none;startSize=10;endSize=0;strokeColor=#000000;spacingTop=2;spacingBottom=2;spacingLeft=2;spacingRight=2;verticalAlign=middle;html=1;labelBackgroundColor=#FFFFFF;rounded=1;jumpStyle=arc;startFill=1;fontStyle=2" edge="1" parent="1" source="qzKK9jRwpghbmKVsXcbc-20" target="qzKK9jRwpghbmKVsXcbc-68">
            <mxGeometry x="0.25" relative="1" as="geometry">
              <mxPoint x="210" y="410" as="sourcePoint" />
              <mxPoint x="210" y="530" as="targetPoint" />
              <mxPoint as="offset" />
            </mxGeometry>
          </mxCell>
        </UserObject>
      </root>
    </mxGraphModel>
  </diagram>
</mxfile>
